<svg xmlns="http://www.w3.org/2000/svg" version="1.0" width="230px" height="332px" viewBox="2.42613 1.9318 216.581 312.983" preserveAspectRatio="xMidYMid meet"  xmlns:xlink="http://www.w3.org/1999/xlink" ><rect id="svgEditorBackground" x="0" y="0" width="450" height="450" style="fill:none;stroke:none;"/>
<metadata>
Created by potrace 1.15, written by Peter Selinger 2001-2017
</metadata>
<g transform="translate(0.000000,450.000000) scale(0.100000,-0.100000)" fill="#000000" stroke="none">


</g>
<g transform="matrix(0.1 0 0 -0.1 -113.488 383.94)" fill="#000000" stroke="none" id="e14_g">
<path d="M2110 3781 c-206 -59 -314 -138 -394 -291 -47 -89 -64 -156 -76 -290 -12 -154 -25 -199 -111 -405 -31 -75 -33 -87 -34 -200 0 -112 2 -124 28 -177 54 -111 132 -148 307 -148 123 0 118 -3 173 106 l26 51 -57 60 c-83 86 -149 218 -166 334 l-7 44 21 -35 c52 -83 106 -121 174 -122 98 -2 169 55 201 160 9 31 18 63 21 70 4 13 52 16 70 4 6 -4 15 -23 19 -42 21 -99 76 -165 153 -185 83 -22 137 -2 201 72 33 39 39 43 35 23 -29 -126 -90 -245 -166 -323 l-58 -59 26 -51 c55 -108 53 -107 174 -107 65 0 126 6 156 15 66 19 126 72 155 137 21 47 24 68 24 173 -1 113 -3 125 -34 200 -86 205 -98 248 -111 405 -12 137 -29 201 -78 295 -92 175 -290 292 -512 301 -72 3 -111 0 -160 -15z m50 -532 c72 -70 189 -149 258 -175 67 -25 69 -30 15 -38 -26 -3 -68 -17 -92 -31 -58 -34 -114 -33 -177 2 -42 24 -64 28 -156 33 l-107 5 60 75 c33 41 76 101 97 132 20 32 38 58 38 58 1 0 30 -27 64 -61z" id="e14_path"/>
<path d="M1430 2091 c-73 -22 -142 -84 -180 -160 -46 -92 -50 -141 -50 -703 l0 -528 175 0 c160 0 175 2 175 18 1 42 29 324 32 327 2 3 17 -73 34 -168 l29 -172 605 0 605 0 29 172 c17 95 32 171 33 169 3 -3 33 -304 33 -333 0 -10 42 -13 175 -13 l175 0 0 528 c0 414 -3 541 -14 593 -35 165 -133 265 -271 276 -55 5 -66 2 -125 -30 -148 -81 -339 -125 -580 -133 -273 -10 -488 29 -677 121 -93 46 -142 54 -203 36z" id="e15_path"/>
</g></svg>