<svg xmlns="http://www.w3.org/2000/svg" version="1" width="230" height="332" viewBox="2.426 1.932 216.581 312.983"><path fill="none" d="M0 0h450v450H0z"/><path d="M97.512 5.84c-20.6 5.9-31.4 13.8-39.4 29.1-4.7 8.9-6.4 15.6-7.6 29-1.2 15.4-2.5 19.9-11.1 40.5-3.1 7.5-3.3 8.7-3.4 20 0 11.2.2 12.4 2.8 17.7 5.4 11.1 13.2 14.8 30.7 14.8 12.3 0 11.8.3 17.3-10.6l2.6-5.1-5.7-6c-8.3-8.6-14.9-21.8-16.6-33.4l-.7-4.4 2.1 3.5c5.2 8.3 10.6 12.1 17.4 12.2 9.8.2 16.9-5.5 20.1-16 .9-3.1 1.8-6.3 2.1-7 .4-1.3 5.2-1.6 7-.4.6.4 1.5 2.3 1.9 4.2 2.1 9.9 7.6 16.5 15.3 18.5 8.3 2.2 13.7.2 20.1-7.2 3.3-3.9 3.9-4.3 3.5-2.3-2.9 12.6-9 24.5-16.6 32.3l-5.8 5.9 2.6 5.1c5.5 10.8 5.3 10.7 17.4 10.7 6.5 0 12.6-.6 15.6-1.5 6.6-1.9 12.6-7.2 15.5-13.7 2.1-4.7 2.4-6.8 2.4-17.3-.1-11.3-.3-12.5-3.4-20-8.6-20.5-9.8-24.8-11.1-40.5-1.2-13.7-2.9-20.1-7.8-29.5-9.2-17.5-29-29.2-51.2-30.1-7.2-.3-11.1 0-16 1.5zm5 53.2c7.2 7 18.9 14.9 25.8 17.5 6.7 2.5 6.9 3 1.5 3.8-2.6.3-6.8 1.7-9.2 3.1-5.8 3.4-11.4 3.3-17.7-.2-4.2-2.4-6.4-2.8-15.6-3.3l-10.7-.5 6-7.5c3.3-4.1 7.6-10.1 9.7-13.2 2-3.2 3.8-5.8 3.8-5.8.1 0 3 2.7 6.4 6.1zm-73 115.8c-7.3 2.2-14.2 8.4-18 16-4.6 9.2-5 14.1-5 70.3v52.8h17.5c16 0 17.5-.2 17.5-1.8.1-4.2 2.9-32.4 3.2-32.7.2-.3 1.7 7.3 3.4 16.8l2.9 17.2h121l2.9-17.2c1.7-9.5 3.2-17.1 3.3-16.9.3.3 3.3 30.4 3.3 33.3 0 1 4.2 1.3 17.5 1.3h17.5v-52.8c0-41.4-.3-54.1-1.4-59.3-3.5-16.5-13.3-26.5-27.1-27.6-5.5-.5-6.6-.2-12.5 3-14.8 8.1-33.9 12.5-58 13.3-27.3 1-48.8-2.9-67.7-12.1-9.3-4.6-14.2-5.4-20.3-3.6z"/></svg>